<?xml version="1.0" encoding="UTF-8" standalone="no"?>
<svg
   xmlns:dc="http://purl.org/dc/elements/1.1/"
   xmlns:cc="http://creativecommons.org/ns#"
   xmlns:rdf="http://www.w3.org/1999/02/22-rdf-syntax-ns#"
   xmlns:svg="http://www.w3.org/2000/svg"
   xmlns="http://www.w3.org/2000/svg"
   xmlns:sodipodi="http://sodipodi.sourceforge.net/DTD/sodipodi-0.dtd"
   xmlns:inkscape="http://www.inkscape.org/namespaces/inkscape"
   width="210mm"
   height="297mm"
   viewBox="0 0 210 297"
   version="1.1"
   id="svg8"
   sodipodi:docname="jogright.svg"
   inkscape:version="1.0.2-2 (e86c870879, 2021-01-15)">
  <defs
     id="defs2" />
  <sodipodi:namedview
     id="base"
     pagecolor="#ffffff"
     bordercolor="#666666"
     borderopacity="1.0"
     inkscape:pageopacity="0.0"
     inkscape:pageshadow="2"
     inkscape:zoom="0.70710678"
     inkscape:cx="181.4935"
     inkscape:cy="327.24037"
     inkscape:document-units="mm"
     inkscape:current-layer="layer1"
     inkscape:document-rotation="0"
     showgrid="false"
     inkscape:window-width="1920"
     inkscape:window-height="1122"
     inkscape:window-x="-8"
     inkscape:window-y="-8"
     inkscape:window-maximized="1" />
  <metadata
     id="metadata5">
    <rdf:RDF>
      <cc:Work
         rdf:about="">
        <dc:format>image/svg+xml</dc:format>
        <dc:type
           rdf:resource="http://purl.org/dc/dcmitype/StillImage" />
        <dc:title></dc:title>
      </cc:Work>
    </rdf:RDF>
  </metadata>
  <g
     inkscape:label="Warstwa 1"
     inkscape:groupmode="layer"
     id="layer1">
    <path
       style="fill:#000000;fill-opacity:0;stroke:#000000;stroke-width:2.02031;stroke-opacity:0"
       d="M 0.7132688,630.74078 C -0.05819581,441.47947 -0.39776425,264.17336 -0.04132768,236.7272 L 0.60673871,186.82511 133.94687,388.1182 C 207.28395,498.8294 267.19056,590.37977 267.0727,591.56349 266.88986,593.39924 7.9793132,968.48748 3.6541604,973.18249 2.8081347,974.10088 1.4847332,820.00211 0.7132688,630.74078 Z"
       id="path839"
       transform="scale(0.26458333)" />
    <path
       style="fill:#000000;fill-opacity:0;stroke:#000000;stroke-width:2.02031;stroke-opacity:0"
       d="M 0.7132688,630.74078 C -0.05819581,441.47947 -0.39776425,264.17336 -0.04132768,236.7272 L 0.60673871,186.82511 133.94687,388.1182 C 207.28395,498.8294 267.19056,590.37977 267.0727,591.56349 266.88986,593.39924 7.9793132,968.48748 3.6541604,973.18249 2.8081347,974.10088 1.4847332,820.00211 0.7132688,630.74078 Z"
       id="path841"
       transform="scale(0.26458333)" />
    <path
       style="fill:#000000;fill-opacity:0;stroke:#000000;stroke-width:2.02031;stroke-opacity:0"
       d="M 257.54733,202.45681 C 181.22574,92.269799 119.01119,1.9735827 119.29277,1.7985586 119.57435,1.6235343 244.91853,1.8787633 397.83539,2.365734 L 675.86604,3.2511353 537.44645,203.02399 c -76.13075,109.87508 -139.03,199.77286 -139.77608,199.77286 -0.74608,0 -63.80146,-90.15303 -140.12304,-200.34004 z"
       id="path843"
       transform="scale(0.26458333)" />
    <path
       style="fill:#000000;fill-opacity:0;stroke:#000000;stroke-width:2.02031;stroke-opacity:0"
       d="M 658.66955,781.46558 526.79307,591.08698 659.6797,390.57433 792.56633,190.06168 l 0.50761,370.52247 c 0.27916,203.78737 -0.17537,379.68844 -1.01016,390.89125 l -1.51775,20.3688 z"
       id="path845"
       transform="scale(0.26458333)" />
    <path
       style="fill:#ff0000;stroke:#c00000;stroke-width:0.264583px;stroke-linecap:butt;stroke-linejoin:miter;stroke-opacity:1"
       d="M -0.53453905,47.573975 72.162772,156.0854 0.00143446,259.25144 Z"
       id="path847" />
    <path
       style="fill:#ff0000;stroke:#000000;stroke-width:0.264583px;stroke-linecap:butt;stroke-linejoin:miter;stroke-opacity:1"
       d="M 30.468726,0 105.83873,107.44235 179.60656,0.5345391 Z"
       id="path849" />
    <path
       style="fill:#800000;stroke:#000000;stroke-width:0.264583px;stroke-linecap:butt;stroke-linejoin:miter;stroke-opacity:1"
       d="M 209.69984,50.287152 139.38066,156.39176 210.07385,259.25144 Z"
       id="path851" />
    <path
       style="fill:#ff0000;stroke:#000000;stroke-width:0.264583px;stroke-linecap:butt;stroke-linejoin:miter;stroke-opacity:1"
       d="m 45.437252,297.2037 59.866938,-91.40617 59.33384,90.87164 z"
       id="path853" />
    <path
       style="fill:#000000;fill-opacity:0;stroke:#000000;stroke-width:2.02031;stroke-opacity:0"
       d="m 178.61138,1116.3379 c 20.17937,-31.5048 218.22048,-329.56049 218.98531,-329.57714 1.33231,-0.029 220.73443,331.40584 219.8699,332.14144 -0.36674,0.3121 -100.11933,1.2057 -221.67242,1.9857 l -221.0056,1.4183 z"
       id="path855"
       transform="scale(0.26458333)" />
    <path
       style="fill:#000000;fill-opacity:0;stroke:#000000;stroke-width:2.02031;stroke-opacity:0"
       d="m 178.61138,1116.3379 c 20.17937,-31.5048 218.22048,-329.56049 218.98531,-329.57714 1.33231,-0.029 220.73443,331.40584 219.8699,332.14144 -0.36674,0.3121 -100.11933,1.2057 -221.67242,1.9857 l -221.0056,1.4183 z"
       id="path857"
       transform="scale(0.26458333)" />
    <path
       style="fill:#000000;fill-opacity:0;stroke:#000000;stroke-width:2.02031;stroke-opacity:0"
       d="m 178.61138,1116.3379 c 20.17937,-31.5048 218.22048,-329.56049 218.98531,-329.57714 1.33231,-0.029 220.73443,331.40584 219.8699,332.14144 -0.36674,0.3121 -100.11933,1.2057 -221.67242,1.9857 l -221.0056,1.4183 z"
       id="path859"
       transform="scale(0.26458333)" />
    <path
       style="fill:#000000;fill-opacity:0;stroke:#000000;stroke-width:2.02031;stroke-opacity:0"
       d="M 659.73727,781.42287 528.92852,591.01095 659.73727,393.62808 790.54603,196.24521 l 0.51518,194.18955 c 0.28334,106.80424 0.28334,281.31191 0,387.7948 l -0.51518,193.60525 z"
       id="path861"
       transform="scale(0.26458333)" />
    <path
       style="fill:#000000;fill-opacity:0;stroke:#000000;stroke-width:2.02031;stroke-opacity:0"
       d="M 258.62314,201.43793 C 181.71946,91.801692 119.02473,1.9600458 119.30151,1.789825 119.57828,1.6196042 244.91825,1.8787625 397.83474,2.3657322 L 675.86476,3.2511317 538.24595,201.97886 c -75.69033,109.30027 -138.10911,198.7435 -138.70837,198.76271 -0.59927,0.0202 -64.01076,-89.6674 -140.91444,-199.30364 z"
       id="path863"
       transform="scale(0.26458333)" />
    <path
       style="fill:#000000;fill-opacity:0;stroke:#000000;stroke-width:2.02031;stroke-opacity:0"
       d="M 0.94119416,714.66864 C 0.20165987,572.77225 -0.40341383,395.75075 -0.40341383,321.28754 V 185.8999 L 20.032893,216.06155 c 11.23997,16.58891 72.2134,107.49689 135.496517,202.01773 L 270.5896,589.93536 137.92251,779.71389 C 64.955599,884.09209 4.587242,970.20559 3.7706019,971.07725 2.9539621,971.94891 1.6807287,856.56505 0.94119416,714.66864 Z"
       id="path865"
       transform="scale(0.26458333)" />
    <path
       style="fill:#000098;fill-opacity:0;stroke:none;stroke-width:2.02031;stroke-opacity:0"
       d="M 0.94119416,714.66864 C 0.20165987,572.77225 -0.40341383,395.75075 -0.40341383,321.28754 V 185.8999 L 20.032893,216.06155 c 11.23997,16.58891 72.2134,107.49689 135.496517,202.01773 L 270.5896,589.93536 137.92251,779.71389 C 64.955599,884.09209 4.587242,970.20559 3.7706019,971.07725 2.9539621,971.94891 1.6807287,856.56505 0.94119416,714.66864 Z"
       id="path867"
       transform="scale(0.26458333)" />
  </g>
</svg>
